# xmcd
#
# Track frame offsets: 
#        150
#        26457
#        69905
#        104665
#        132530
#        158700
#        178338
#        199094
#
# Disc length: 3313 seconds
#
# Revision: 0
# Processed by: cddbd v1.5.2PL0 Copyright (c) Steve Scherf et al.
# Submitted via: ExactAudioCopy v0.99pb5
#
DISCID=6f0cef08
DTITLE=JPT Scare Band with Jerry Wood - Acid Blues Is The White Man's 
DTITLE=Burden
DYEAR=2005
DGENRE=Blues
TTITLE0=Death Letter 2001
TTITLE1=Hootchie Kootchie Man
TTITLE2=Part Time Love (with Jerry Wood)
TTITLE3=Going Down Slow (with Jerry Wood)
TTITLE4=Oh Me Oh My Oh (with Jerry Wood)
TTITLE5=Sweet Cocaine (Finnigan and Wood)
TTITLE6=Funky Honky (with Jerry Wood)
TTITLE7=Stone House Blues
EXTD=
EXTT0=
EXTT1=
EXTT2=
EXTT3=
EXTT4=
EXTT5=
EXTT6=
EXTT7=
PLAYORDER=
